<mxfile host="app.diagrams.net" agent="Mozilla/5.0 (Windows NT 10.0; Win64; x64) AppleWebKit/537.36 (KHTML, like Gecko) Chrome/135.0.0.0 Safari/537.36" version="26.2.12">
  <diagram id="C5RBs43oDa-KdzZeNtuy" name="Page-1">
    <mxGraphModel dx="386" dy="575" grid="1" gridSize="10" guides="1" tooltips="1" connect="1" arrows="1" fold="1" page="1" pageScale="1" pageWidth="827" pageHeight="1169" math="0" shadow="0">
      <root>
        <mxCell id="WIyWlLk6GJQsqaUBKTNV-0" />
        <mxCell id="WIyWlLk6GJQsqaUBKTNV-1" parent="WIyWlLk6GJQsqaUBKTNV-0" />
        <mxCell id="lbgLd4cwvmlpA9iM8gDp-0" value="USER" style="shape=umlActor;verticalLabelPosition=bottom;verticalAlign=top;html=1;outlineConnect=0;" parent="WIyWlLk6GJQsqaUBKTNV-1" vertex="1">
          <mxGeometry x="100" y="180" width="70" height="220" as="geometry" />
        </mxCell>
        <mxCell id="lbgLd4cwvmlpA9iM8gDp-4" value="" style="rounded=1;whiteSpace=wrap;html=1;" parent="WIyWlLk6GJQsqaUBKTNV-1" vertex="1">
          <mxGeometry x="230" y="60" width="360" height="510" as="geometry" />
        </mxCell>
        <mxCell id="lbgLd4cwvmlpA9iM8gDp-1" value="Setup the Simulation" style="ellipse;whiteSpace=wrap;html=1;" parent="WIyWlLk6GJQsqaUBKTNV-1" vertex="1">
          <mxGeometry x="329" y="110" width="170" height="80" as="geometry" />
        </mxCell>
        <mxCell id="lbgLd4cwvmlpA9iM8gDp-2" value="Start the Simulation" style="ellipse;whiteSpace=wrap;html=1;" parent="WIyWlLk6GJQsqaUBKTNV-1" vertex="1">
          <mxGeometry x="329" y="230" width="170" height="80" as="geometry" />
        </mxCell>
        <mxCell id="lbgLd4cwvmlpA9iM8gDp-3" value="View real-time queues evolution" style="ellipse;whiteSpace=wrap;html=1;" parent="WIyWlLk6GJQsqaUBKTNV-1" vertex="1">
          <mxGeometry x="329" y="340" width="170" height="80" as="geometry" />
        </mxCell>
        <mxCell id="lbgLd4cwvmlpA9iM8gDp-7" value="" style="endArrow=none;html=1;rounded=0;exitX=1;exitY=0.3333333333333333;exitDx=0;exitDy=0;exitPerimeter=0;entryX=0;entryY=0.5;entryDx=0;entryDy=0;" parent="WIyWlLk6GJQsqaUBKTNV-1" source="lbgLd4cwvmlpA9iM8gDp-0" target="lbgLd4cwvmlpA9iM8gDp-1" edge="1">
          <mxGeometry width="50" height="50" relative="1" as="geometry">
            <mxPoint x="430" y="330" as="sourcePoint" />
            <mxPoint x="480" y="280" as="targetPoint" />
          </mxGeometry>
        </mxCell>
        <mxCell id="lbgLd4cwvmlpA9iM8gDp-8" value="" style="endArrow=none;html=1;rounded=0;exitX=1;exitY=0.3333333333333333;exitDx=0;exitDy=0;exitPerimeter=0;entryX=0;entryY=0.5;entryDx=0;entryDy=0;" parent="WIyWlLk6GJQsqaUBKTNV-1" source="lbgLd4cwvmlpA9iM8gDp-0" target="lbgLd4cwvmlpA9iM8gDp-2" edge="1">
          <mxGeometry width="50" height="50" relative="1" as="geometry">
            <mxPoint x="180" y="263" as="sourcePoint" />
            <mxPoint x="339" y="160" as="targetPoint" />
          </mxGeometry>
        </mxCell>
        <mxCell id="lbgLd4cwvmlpA9iM8gDp-9" value="" style="endArrow=none;html=1;rounded=0;exitX=1;exitY=0.3333333333333333;exitDx=0;exitDy=0;exitPerimeter=0;entryX=0;entryY=0.5;entryDx=0;entryDy=0;" parent="WIyWlLk6GJQsqaUBKTNV-1" source="lbgLd4cwvmlpA9iM8gDp-0" target="lbgLd4cwvmlpA9iM8gDp-3" edge="1">
          <mxGeometry width="50" height="50" relative="1" as="geometry">
            <mxPoint x="190" y="273" as="sourcePoint" />
            <mxPoint x="349" y="170" as="targetPoint" />
          </mxGeometry>
        </mxCell>
        <mxCell id="lF7LGd1YQ1C452y4i1L8-0" value="Log Results" style="ellipse;whiteSpace=wrap;html=1;" parent="WIyWlLk6GJQsqaUBKTNV-1" vertex="1">
          <mxGeometry x="325" y="440" width="170" height="80" as="geometry" />
        </mxCell>
        <mxCell id="lF7LGd1YQ1C452y4i1L8-2" value="" style="endArrow=none;html=1;rounded=0;exitX=1;exitY=0.3333333333333333;exitDx=0;exitDy=0;exitPerimeter=0;entryX=0;entryY=0.5;entryDx=0;entryDy=0;" parent="WIyWlLk6GJQsqaUBKTNV-1" source="lbgLd4cwvmlpA9iM8gDp-0" target="lF7LGd1YQ1C452y4i1L8-0" edge="1">
          <mxGeometry width="50" height="50" relative="1" as="geometry">
            <mxPoint x="180" y="263" as="sourcePoint" />
            <mxPoint x="339" y="390" as="targetPoint" />
          </mxGeometry>
        </mxCell>
      </root>
    </mxGraphModel>
  </diagram>
</mxfile>
